<?xml version="1.0" encoding="UTF-8"?><svg id="Layer_2" xmlns="http://www.w3.org/2000/svg" viewBox="0 0 330.61 364.03"><defs><style>.cls-1{fill:#6b9e82;fill-rule:evenodd;}</style></defs><g id="Layer_1-2"><path class="cls-1" d="m240.94,258.6c8.7-12.6,21.2-17.6,34.6-21.2,11.5-3.1,23.7-5,33.6-11.9,7.6-5.3,12.5-13.6,15.8-23,5.3-15,6.1-32.7,5.5-46-.2-4.7-1-9.1-2.6-13.6-.8-2.3-1.7-4.6-3-6.6-1.5-2.4-2.8-3.9-4.4-4.4-1.5-.4-2.9.3-4.3,1.3-2.5,1.7-5,4.5-7.3,7.5-4.9,6.5-9.1,14.3-11.5,18.3-1.8,2.9-3.6,5.9-5.6,8.6-3.3,4.4-7.3,7.3-11.4,8.7,0,0,0,.01,0,.01l-7,.99h-.03s-.05,0-.07,0c-4.5-.5-9-3-12.6-8.3-6.2-8.95-7.84-19.65-6.65-30.57l.15-.53,1.6-6.5-.07-.14c2.92-14.15,10.29-28.19,17.37-38.46,4.1-5.8,8.6-11,12-16.3,4.1-6.5,6.2-13.4,1.6-23-1.6-3.2-3.5-6.3-5.9-9-1.5-1.6-3.1-3-4.8-4.4-2-1.7-3.4-2.8-4.8-2.7-1,.1-1.5,1.2-2.1,2.3-1.5,2.5-2.6,5.8-3.6,9.2-1.5,4.9-2.9,9.9-4.5,13.2-5.5,11-18.7,21.8-30.3,9.2-.08-.08-.17-.19-.25-.29-.18-.33-.38-.64-.65-.91l-3.7-3.7-.1-.14c-2.57-5.83-1.87-11.94.6-18.06,2-4.9,5.1-9.9,7.9-14.7,2.2-3.7,4.2-7.3,4.4-10.6.4-6.1-3.9-10.5-9.5-13.9C220.05,3.41,206.97.61,197.77.1l-.03-.1h-5.7l-.2.1c-8.7,0-15.35.31-21.3,1.4-12.8,2.4-28.8,6.1-41.8,13.5-5.95,3.37-11.21,7.44-15.1,12.58l-.1.02-3.6,5.8.02.15s-.01-.03-.02-.05c-6.7,14.1-1.7,27.7,1.8,41.9.8,3.1,1.7,6.5,1.9,9.5.2,3.4-.4,6.5-2.1,8.9-1.7,2.5-4.6,4.6-9.6,5.1-10.1,1-17.3-3.7-22.5-10.7-4.4-5.9-7.3-13.6-9.4-19.8-.6-1.9-1.5-5-2.9-7.8-.4-.8-.8-1.6-1.4-2.3-.2-.3-.6-.6-.7-.7-3.5-.6-6.8.4-9.8,2-3.8,2-7.2,4.9-10.2,7.5-5.5,4.9-11,10.1-16.2,15.7h0s-3.8,4-3.8,4c-7.3,8.2-13.9,17-19.2,26.2-3.2,5.6-6.8,14-5.6,20.6,1.3,7.2,8.9,12.8,14.8,16.3,14.7,8.7,30.8,15,45.6,23.5,14,8.1,24.7,21.7,19,39.1-1.8,5.6-4.4,9.7-7.5,12.6.03.04.07.08.1.11h-.1s-4.44,3.35-4.44,3.35c-.02-.02-.04-.04-.06-.06-1.2.7-2.4,1.2-3.7,1.6-9.3,3-20.9-.7-30.5-8.7-2-1.7-4.3-4.6-6.6-8.2-2.8-4.3-5.9-9.7-9.1-13.8-1.3-1.6-2.6-3.1-4-4-.6-.4-1.2-.8-1.8-.7-1.4.2-2.5,1.6-4,3.9-1.2,1.7-2.1,3.5-2.9,5.4-1.2,3.2-1.6,6.5-2.1,9.8-.8,5.3-.6,10.4-.3,15.7.4,7.2,1.1,13.9,3.7,20.7,1.6,4.1,4.7,7.5,7.3,10.9,10.2,12.8,21.3,16.3,33.9,16.7,9.3.3,19.3-.8,30.2-1.4,8.3-.4,21.8-1.3,31.5,2.3,8.1,3,14.1,8.6,14.9,18.5.5,5.5-1.4,10.3-4.7,14.3-4.4,5.3-11.3,8.9-17.6,10.2-9.3,1.8-17.8.4-26.1-2.2-7.4-2.3-14.6-5.6-22.2-7.8-2.2-.6-5.8-.8-9-.1-1.1.2-2.1.5-2.9,1.1-.5.3-1,.6-1.1,1.2-.6,4.1,2.3,8.1,5.8,12,6.8,7.4,16.9,13.7,22.3,17,6.5,4,13.6,7.4,20.5,10.6,9.1,4.2,19.5,9.9,29.7,10.5,10.1.5,18.6-5.2,26.6-12,9.3-7.9,17.8-17.3,26.4-23,.4-.3.89-.5,1.39-.69l.11.09c3.7-1.6,4.8,2.6,8.4,5.4l.03-.02c3.27,2.07,6.81,3.95,9.57,6.02,9.1,6.8,19.2,14.4,30.6,16.6,10.4,2.1,20.5-1.7,30-7,10.6-5.9,20.6-13.8,29.7-19.4,8.4-5.2,21-13.9,29.3-24.3,4.8-6,8.3-12.6,7.6-19.3-.3-3.2-1.6-6.5-2.8-9.5-2.2-5.3-5.2-8.6-8.9-10.2-3.7-1.6-8-1.6-12.4-.6-10.4,2.2-21.2,9.3-28.7,15.5-1.6,1.3-5.6,4.9-10,7.8-3.5,2.3-7.3,4.1-10.5,4.6-2.7.4-5.1.1-7.2-1s-4-3-5.1-6.3c-1.5-4.2-1.2-8.7.2-13.2,1.7-5.5,5.1-10.8,7.8-14.9Z"/></g></svg>